<svg id="visual" viewBox="0 0 900 600" width="900" height="600" xmlns="http://www.w3.org/2000/svg" xmlns:xlink="http://www.w3.org/1999/xlink" version="1.1"><path d="M220 0L233.8 14.3C247.7 28.7 275.3 57.3 268.2 85.8C261 114.3 219 142.7 224.2 171.2C229.3 199.7 281.7 228.3 281.5 257C281.3 285.7 228.7 314.3 220.2 343C211.7 371.7 247.3 400.3 242 428.8C236.7 457.3 190.3 485.7 179 514.2C167.7 542.7 191.3 571.3 203.2 585.7L215 600L0 600L0 585.7C0 571.3 0 542.7 0 514.2C0 485.7 0 457.3 0 428.8C0 400.3 0 371.7 0 343C0 314.3 0 285.7 0 257C0 228.3 0 199.7 0 171.2C0 142.7 0 114.3 0 85.8C0 57.3 0 28.7 0 14.3L0 0Z" fill="#A4DFDD" stroke-linecap="round" stroke-linejoin="miter"></path></svg>